<svg xmlns="http://www.w3.org/2000/svg" xmlns:xlink="http://www.w3.org/1999/xlink" viewBox="0 0 559 497.95"><defs><style>.cls-1{fill:#fee546;}.cls-2{fill:#eb7665;}.cls-3{fill:#8f5498;}.cls-4{fill:url(#Dégradé_sans_nom_16);}.cls-5{fill:#4f6aae;}.cls-6{fill:#049fcb;}.cls-7{fill:url(#Dégradé_sans_nom_9);}.cls-8{fill:#59a85b;}.cls-9{fill:url(#Dégradé_sans_nom_12);}.cls-10{fill:url(#Dégradé_sans_nom_24);}.cls-11{fill:url(#Dégradé_sans_nom_16-2);}.cls-12{fill:url(#Dégradé_sans_nom_21);}.cls-13{fill:#00d5fb;}.cls-14{fill:#7be8fb;}.cls-15{fill:#007b91;}</style><linearGradient id="Dégradé_sans_nom_16" x1="351.41" y1="173.75" x2="377.32" y2="217.14" gradientUnits="userSpaceOnUse"><stop offset="0" stop-color="#fee546"/><stop offset="1" stop-color="#4f6aae"/></linearGradient><linearGradient id="Dégradé_sans_nom_9" x1="381.17" y1="273.54" x2="351.44" y2="326.18" gradientUnits="userSpaceOnUse"><stop offset="0" stop-color="#eb7665"/><stop offset="1" stop-color="#049fcb"/></linearGradient><linearGradient id="Dégradé_sans_nom_12" x1="249.39" y1="349.69" x2="308.92" y2="349.69" gradientUnits="userSpaceOnUse"><stop offset="0" stop-color="#59a85b"/><stop offset="1" stop-color="#8f5498"/></linearGradient><linearGradient id="Dégradé_sans_nom_24" x1="308.71" y1="148.26" x2="251.58" y2="148.26" gradientUnits="userSpaceOnUse"><stop offset="0" stop-color="#8f5498"/><stop offset="1" stop-color="#59a85b"/></linearGradient><linearGradient id="Dégradé_sans_nom_16-2" x1="179.55" y1="276.58" x2="207.91" y2="326.67" xlink:href="#Dégradé_sans_nom_16"/><linearGradient id="Dégradé_sans_nom_21" x1="176.12" y1="226.64" x2="209.23" y2="170.55" gradientUnits="userSpaceOnUse"><stop offset="0" stop-color="#049fcb"/><stop offset="1" stop-color="#eb7665"/></linearGradient></defs><title>AFichier 1</title><g id="Calque_2" data-name="Calque 2"><g id="Calque_1-2" data-name="Calque 1"><path class="cls-1" d="M330.44,161c-18.36-26.55-44.21-60.33-72.28-86-22.35-20.44-44.37-35.76-63.69-44.31-12.87-5.7-30.71-11.06-42.61-4.24l-11.44-20C156.68-2.79,178-1.73,203.78,9.68c21.56,9.54,45.74,26.27,69.9,48.37,36.14,33.05,68,77.52,86.67,106.11"/><path class="cls-2" d="M380.86,248.91c13.64-29.34,29.83-69,37.79-106.47,6.3-29.63,8.35-56.38,5.93-77.36-1.61-14-6-32.08-17.94-38.88l11.4-20c16.27,9.29,26.16,28.2,29.39,56.22,2.7,23.42.53,52.74-6.28,84.77-10.29,48.43-32.88,99-48.06,129.49"/><path class="cls-3" d="M312.82,136.64c34.12,2,88.52,7.48,135.18,22.38,31.2,10,57.73,22.61,76.74,36.57C547.47,212.28,559,230.24,559,249H536c0-13.71-13.53-26.52-24.87-34.85-17-12.5-41.27-24-70.13-33.2-36.23-11.57-78.4-17.18-110.56-19.9"/><path class="cls-3" d="M330.56,336.91c32.15-2.72,74.25-8.33,110.44-19.89,28.85-9.22,53.1-20.7,70.13-33.2C522.47,275.49,536,262.68,536,249h23c0,18.73-11.53,36.69-34.26,53.39-19,14-45.54,26.6-76.74,36.57-46.57,14.87-100.85,20.35-135,22.37"/><path class="cls-4" d="M378,192.5c-.69-1.21-7.08-12.26-17.59-28.33L330.44,161c16.79,24.28,27.32,42.49,27.56,42.91h0c.22.38,10.52,18.47,22.91,45l12.17-27.83C384.75,204.42,378.63,193.69,378,192.5Z"/><path class="cls-5" d="M393.09,221.11C408.33,251.62,431,302,441.37,350.37c6.88,32,9.11,61.33,6.47,84.76-3.17,28-13,47-29.26,56.28l-11.45-20C419,464.65,423.4,446.54,425,432.55c2.37-21,.26-47.73-6.1-77.35-8-37.38-24.28-77-38-106.27"/><path class="cls-5" d="M228.56,336.92c18.36,26.55,44.21,60.33,72.27,86,22.35,20.44,44.38,35.76,63.69,44.31,12.87,5.7,30.72,11.06,42.6,4.24l11.44,20a49.2,49.2,0,0,1-24.91,6.28c-11.39,0-24.24-3.15-38.45-9.43-21.56-9.54-45.73-26.27-69.9-48.37-36.14-33.05-68-77.52-86.67-106.11"/><path class="cls-6" d="M360.44,333.77c-18.67,28.64-50.33,73.07-86.33,106.14-24.12,22.16-48.25,38.94-69.8,48.53-14.25,6.34-27.14,9.52-38.56,9.52A49.16,49.16,0,0,1,141,491.72l11.4-20c11.91,6.8,29.74,1.4,42.6-4.33,19.29-8.59,41.28-24,63.59-44.45,28-25.7,53.72-59.49,72-86.06"/><path class="cls-7" d="M380.86,248.91c-12.31,26.49-22.55,44.55-22.76,44.92h0c-.24.42-10.76,18.71-27.54,43.08l29.88-3.14c10.55-16.18,16.94-27.32,17.64-28.53s6.74-11.88,15-28.52Z"/><path class="cls-6" d="M178.12,249.09c-13.63,29.34-29.81,69-37.77,106.42-6.3,29.63-8.35,56.38-5.93,77.36,1.61,14,6,32.08,17.94,38.88l-11.4,20c-16.27-9.29-26.16-28.2-29.39-56.22-2.7-23.42-.53-52.74,6.28-84.78,10.29-48.43,32.88-99,48.05-129.49"/><path class="cls-8" d="M246.18,361.31c-34.12-2-88.52-7.48-135.18-22.38-31.2-10-57.73-22.61-76.74-36.57C11.53,285.67,0,267.71,0,249H23c0,13.71,13.53,26.52,24.87,34.85,17,12.5,41.27,24,70.13,33.2,36.23,11.57,78.4,17.18,110.56,19.9"/><path class="cls-9" d="M279.5,339.47c-.46,0-21.51-.07-50.94-2.55l17.62,24.39c19.17,1.13,31.93,1.16,33.32,1.16s14.25,0,33.52-1.17l17.54-24.39C301.07,339.41,280,339.47,279.5,339.47Z"/><path class="cls-8" d="M228.44,161c-32.15,2.72-74.25,8.33-110.44,19.89-28.85,9.22-53.1,20.7-70.13,33.2C36.53,222.46,23,235.27,23,249H0c0-18.73,11.53-36.69,34.26-53.39,19-14,45.54-26.6,76.74-36.57,46.57-14.88,100.85-20.35,135-22.37"/><path class="cls-10" d="M330.44,161l-17.62-24.39c-19.17-1.13-31.93-1.16-33.32-1.16s-14.25,0-33.52,1.17L228.44,161c29.49-2.5,50.6-2.56,51.06-2.56S301,158.54,330.44,161Z"/><path class="cls-11" d="M201,294h0c-.24-.41-10.51-18.46-22.88-44.92l-12.21,27.74c8.34,16.69,14.46,27.43,15.14,28.62s7.08,12.26,17.59,28.33l29.92,3.14C211.75,312.62,201.22,294.38,201,294Z"/><path class="cls-1" d="M165.91,276.83c-15.24-30.51-37.89-80.91-48.28-129.26-6.88-32-9.11-61.33-6.47-84.76,3.17-28,13-47,29.26-56.28l11.44,20C140,33.3,135.6,51.41,134,65.4c-2.37,21-.26,47.73,6.1,77.35,8,37.41,24.3,77,38,106.35"/><path class="cls-12" d="M228.44,161l-29.84,3.08c-10.57,16.21-17,27.38-17.68,28.6s-6.75,11.89-15,28.53l12.21,27.84c12.32-26.52,22.57-44.6,22.78-45h0C201.14,203.7,211.66,185.4,228.44,161Z"/><path class="cls-2" d="M198.6,164.12c18.67-28.64,50.32-73,86.29-106.08C309,35.89,333.15,19.11,354.69,9.52,380.46-2,401.77-3.06,418,6.22l-11.4,20c-11.9-6.79-29.73-1.4-42.6,4.33-19.29,8.59-41.28,24-63.59,44.45-28,25.7-53.72,59.49-72,86.06"/><path class="cls-13" d="M310.84,225.73q4.46,7.62,8.92,15.24c1.67,2.85,3.39,5.67,5.08,8.5.49,1.24,1.47,2.24,1.79,3.56a2,2,0,0,1-1-.43q-15-9-30.09-18-7.77-4.64-15.57-9.25V173.7a54.77,54.77,0,0,1,4.06,6.57c2.82,4.65,5.57,9.33,8.35,14,2.24,3.85,4.46,7.7,6.72,11.54q5.6,9.54,11.23,19.07C310.44,225.18,310.65,225.45,310.84,225.73Z"/><path class="cls-14" d="M279.91,173.7v51.64l0,.08c-.42.21-.85.39-1.24.62L234.47,252.5c-.39.23-.74.6-1.26.54.08-.89.85-1.46,1.07-2.29a34.32,34.32,0,0,0,2.53-4.3l.66-1.07,15.14-25.75q4.75-8,9.49-16,8.54-14.47,17.06-28.95A12.37,12.37,0,0,1,279.91,173.7Z"/><path class="cls-13" d="M317.68,272.66l-27.86,38.27c-.17.24-.31.5-.47.75q-4.21,5.72-8.42,11.45c-.3.4-.5.9-1,1.11q0-18.19,0-36.38,7.66-4.56,15.31-9.12c4.18-2.51,8.35-5,12.52-7.58a1.66,1.66,0,0,0,.36-.13c4-2.67,8.29-5,12.4-7.55a49.58,49.58,0,0,0,5.64-3.55c.25,0,.53,0,.72.21a9.23,9.23,0,0,0-1.51,2.07l-.29.42Z"/><path class="cls-14" d="M279.92,287.87q0,18.19,0,36.38c-1-.62-1.38-1.86-2.29-2.6,0-.47-.34-.77-.58-1.1L248.24,281c-.2-.27-.43-.53-.64-.79l-10.5-14.53a48.47,48.47,0,0,1-3.62-5.52l12.74,7.5c2.71,1.66,5.41,3.33,8.14,5,4.77,2.85,9.56,5.67,14.34,8.5Z"/><path class="cls-15" d="M279.92,225.34q7.79,4.62,15.57,9.25,15.05,9,30.09,18a2,2,0,0,0,1,.43h0l.29.28c.18.84-.69.67-1,1a7.71,7.71,0,0,1-1.35.93c-4.5,2.51-8.92,5.14-13.25,7.93-.3.15-.62.28-.91.46q-9.08,5.44-18.16,10.88c-4.08,2.43-8.19,4.83-12.29,7.24q0-24.4,0-48.81c0-2.51,0-5,0-7.52Z"/><path class="cls-13" d="M279.88,225.43c0,2.51,0,5,0,7.52q0,24.4,0,48.81l-1.56-.85c-2.72-1.53-5.26-3.36-8.12-4.66-.47-.35-.92-.74-1.41-1q-7.21-4.34-14.43-8.65a2.3,2.3,0,0,0-1.27-.53c-6-4-12.24-7.5-18.37-11.24-.65-.4-1.55-.54-1.84-1.43.15-.06.3-.13.3-.33h0c.52.06.87-.31,1.26-.54L278.64,226C279,225.81,279.47,225.63,279.88,225.43Z"/></g></g></svg>